<svg xmlns="http://www.w3.org/2000/svg" width="48.18" height="45" viewBox="0 0 48.18 45">
  <g id="Asset_10" data-name="Asset 10" transform="translate(0.005 0.028)">
    <g id="Layer_1" data-name="Layer 1" transform="translate(-0.005 -0.028)">
      <path id="Path_377" data-name="Path 377" d="M32.528,43.1h-.091C25.41,38.944,15.2,27.591,11.841,23.941l-.447-.493c-.4-.447-.666-.739-.767-.84-.757-.73-1.022-.858-1.223-.913l-1.186-.365v.548a1.132,1.132,0,0,1-.593-.31l-5.986-5.84c-1.706-1.643.548-4.106.648-4.207l.073-.082.219-.4.1-.164.183-.283v-.055C4.066,8.8,5.3,7.2,6.512,5.773l.219-.21a18.251,18.251,0,0,1,3.924-3.8A5.2,5.2,0,0,1,13.465,1a7.729,7.729,0,0,1,1.6.183,9.618,9.618,0,0,0,2.573,9.938,11.2,11.2,0,0,0,7.2,2.792,10.43,10.43,0,0,0,3.358-.575c0,.183.073.447.119.776.429,2.984,1.579,10.951,5.384,17.265a14.409,14.409,0,0,0,1.068,1.478c1.935,2.5,3.5,4.873,1.825,6.8-.11.128-.219.256-.319.392l-.192.219a4.189,4.189,0,0,1-.329.374C33.7,42.931,32.775,43.1,32.537,43.1Z" transform="translate(-0.083 -0.062)" fill="#fff"/>
      <path id="Path_378" data-name="Path 378" d="M36.309,41.19l.392-.438h0l.183-.219c.091-.119.183-.228.283-.338,2.281-2.656-.164-5.831-1.825-7.921a12.092,12.092,0,0,1-1.013-1.424c-3.7-6.2-4.836-13.989-5.265-16.928-.064-.465-.119-.812-.155-.986a.73.73,0,0,0-.383-.52.785.785,0,0,0-.639-.055A9.917,9.917,0,0,1,18.122,10.4a8.724,8.724,0,0,1-2.29-9.125.757.757,0,0,0-.073-.611.785.785,0,0,0-.429-.42A6.552,6.552,0,0,0,10.083.91a18.616,18.616,0,0,0-4.143,4l-.173.21c-1.2,1.487-2.5,3.094-3.7,4.836h0c-.137.192-.256.392-.374.584s-.11.183-.173.274c-1.068,1.15-2.491,3.65-.611,5.475l5.977,5.767h0a1.825,1.825,0,0,0,2.053.392h.082a3.4,3.4,0,0,1,.858.694c.128.128.511.548,1.1,1.2,3.4,3.741,13.706,15.176,20.961,19.465h.082C32.632,44.119,33.9,43.864,36.309,41.19Zm-.3-2.035-.31.365-.2.246-.3.338a1.825,1.825,0,0,1-1,.675,1.469,1.469,0,0,1-.995-.5c-.046,0-2.646-2.062-6.388-5.4,1.341-1.378,4.143-3.6,6.388-2.993.246.383.584.821.958,1.3C35.972,35.523,37.349,37.585,36.008,39.155ZM9.919,17.728a5.968,5.968,0,0,1,3.65-1.925A4.7,4.7,0,0,1,17.082,17a23.087,23.087,0,0,1,4.088,5.119c.538.821,1.1,1.679,1.688,2.482,2.537,3.431,6.57,3.23,8.158,2.984.374.913.785,1.77,1.241,2.637-2.811.082-5.521,2.528-6.57,3.65A132.4,132.4,0,0,1,14.6,22.273c-.529-.566-1.57-1.588-2.838-2.82ZM10.95,2.252A4.672,4.672,0,0,1,14.235,1.6a10.084,10.084,0,0,0,2.92,9.883,11.452,11.452,0,0,0,10.476,2.592v.046A58.212,58.212,0,0,0,30.46,26.1a6.781,6.781,0,0,1-6.324-2.418c-.566-.767-1.113-1.606-1.643-2.409A23.726,23.726,0,0,0,18.1,15.794a6.287,6.287,0,0,0-4.645-1.56A7.592,7.592,0,0,0,8.8,16.642l-.411-.392L6.643,14.6C11.278,9.214,9.755,5.363,8.869,3.94A11.115,11.115,0,0,1,10.95,2.252ZM3.13,11.176l.21-.338C4.562,9.123,5.73,7.563,6.953,6.121l.173-.21c.219-.265.438-.52.666-.776.648,1.25,1.332,4.17-2.318,8.377C4.507,12.554,3.65,11.715,3.13,11.176Zm9.016,12.1c-.621-.684-1.031-1.132-1.168-1.268-.785-.757-1.588-1.533-2.738-.913a.557.557,0,0,1-.265-.11L1.989,15.173c-.849-.821-.283-2,.219-2.738,1.068,1.077,3.039,2.957,5.11,4.937l.976.913H8.34c2.2,2.108,4.28,4.106,5.055,4.937,2.957,3.486,6.041,6.671,8.833,9.372,5.539,5.348,9.937,8.76,9.974,8.788a3.377,3.377,0,0,0,.913.593,2.318,2.318,0,0,1-.566.292C25.5,38.1,15.458,26.963,12.145,23.277Z" transform="translate(0.005 0.028)" fill="#1c1c1c"/>
      <path id="Path_379" data-name="Path 379" d="M27.368,19.573a1.141,1.141,0,1,0-.335-.808,1.141,1.141,0,0,0,.335.808Z" transform="translate(-2.36 -1.516)" fill="#1c1c1c"/>
      <path id="Path_380" data-name="Path 380" d="M28.308,23.092a1.141,1.141,0,1,0-.335-.808A1.15,1.15,0,0,0,28.308,23.092Z" transform="translate(-2.442 -1.823)" fill="#1c1c1c"/>
      <path id="Path_381" data-name="Path 381" d="M29.248,26.612a1.15,1.15,0,1,0,0-1.624A1.15,1.15,0,0,0,29.248,26.612Z" transform="translate(-2.525 -2.13)" fill="#1c1c1c"/>
      <path id="Path_382" data-name="Path 382" d="M5.587,46.307c-2.363,0-2.446-3.34-2.455-3.477v-.119s-.082-.356-.1-.42L2.986,42.1a.623.623,0,0,0-.064-.338v-.055c-.329-2.081-.557-4.088-.684-5.959v-.274A18.251,18.251,0,0,1,2.42,30a5.63,5.63,0,0,1,2.738-3.5,9.572,9.572,0,0,0,8.715,5.375c.064,0,6.26-.073,9.125-5.74.155.11.365.274.63.484,2.382,1.825,8.706,6.735,15.86,8.678a12.593,12.593,0,0,0,1.734.329h.091c3.075.447,5.858,1.059,6,3.6v1.3c.128,3.65-.666,4.052-.675,4.052a62.05,62.05,0,0,1-13.341,1.1h0c-6.059,0-11.972-.411-14.81-.6l-.684-.055-1.122-.064a3.358,3.358,0,0,0-1.506.183l-1.086.538.374.4a1.25,1.25,0,0,1-.666.21Z" transform="translate(-0.181 -2.26)" fill="#fff"/>
      <path id="Path_383" data-name="Path 383" d="M48.258,40.457v-.593h0v-.721c-.21-3.5-4.17-4.079-6.789-4.462a13.431,13.431,0,0,1-1.716-.329c-6.963-1.88-13.186-6.707-15.513-8.523l-.8-.6a.767.767,0,0,0-1.132.3,9.89,9.89,0,0,1-8.4,5.366A8.715,8.715,0,0,1,5.816,25.92a.776.776,0,0,0-.475-.392.757.757,0,0,0-.611.073,6.552,6.552,0,0,0-3.3,4.143,18.361,18.361,0,0,0-.219,5.731v.274c.128,1.944.365,3.979.7,6.05h.009a2.773,2.773,0,0,0,.137.675c.055.219,0,.21.064.319,0,1.57.757,4.371,3.367,4.371h8.295A1.825,1.825,0,0,0,15.607,46a.319.319,0,0,0,0-.091,3.65,3.65,0,0,1,1.1-.091,13.385,13.385,0,0,1,1.606.1c5.046.356,20.4,1.424,28.58-.511h.091C47.646,45.084,48.376,44.053,48.258,40.457Zm-1.624-1.25v1.241a1.825,1.825,0,0,1-.256,1.186,1.433,1.433,0,0,1-1.059.329c-.064,0-3.34.356-8.313.511,0-1.916.475-5.475,2.5-6.57.447.11.986.192,1.6.283C44.078,36.615,46.506,37.136,46.633,39.207ZM12.979,41.945a6.023,6.023,0,0,1,1.314-3.951,4.69,4.69,0,0,1,3.358-1.57,22.813,22.813,0,0,1,6.488.84c.967.219,1.962.447,2.947.611,4.207.712,6.963-2.236,7.939-3.513q1.369.575,2.738,1.04c-1.962,2.008-2.208,5.64-2.217,7.154a134.625,134.625,0,0,1-16.051-.566c-.767,0-2.236-.055-4.006-.055ZM2.941,30.082a4.754,4.754,0,0,1,1.916-2.738,10.038,10.038,0,0,0,8.925,5.074,11.461,11.461,0,0,0,9.344-5.411h0a58.173,58.173,0,0,0,10.366,6.625,6.745,6.745,0,0,1-6.223,2.656c-.913-.164-1.916-.383-2.856-.6a23.625,23.625,0,0,0-6.944-.867,6.223,6.223,0,0,0-4.426,2.1,7.574,7.574,0,0,0-1.688,4.973H8.444c-.4-7.09-4.17-8.806-5.795-9.217a10.951,10.951,0,0,1,.283-2.592Zm.6,11.863a3.264,3.264,0,0,0-.073-.392c-.329-2.026-.557-4.015-.684-5.9v-.274a5.4,5.4,0,0,0-.064-1.013c1.351.456,3.842,2.081,4.189,7.611-1.424-.036-2.628-.046-3.376-.064Zm14.883,2.409c-.913-.064-1.524-.11-1.716-.11-1.086,0-2.217,0-2.61,1.25a.557.557,0,0,1-.292.082H5.5c-1.186,0-1.6-1.25-1.743-2.108h8.523c3.048,0,5.941,0,7.072.046,4.563.447,8.979.6,12.858.6,7.7,0,13.241-.593,13.286-.6a3.65,3.65,0,0,0,1.04-.183,2.382,2.382,0,0,1-.2.6C38.329,45.741,23.373,44.7,18.427,44.354Z" transform="translate(-0.09 -2.168)" fill="#1c1c1c"/>
      <path id="Path_384" data-name="Path 384" d="M26.12,32.05a1.15,1.15,0,1,0-1.081-.541A1.15,1.15,0,0,0,26.12,32.05Z" transform="translate(-2.171 -2.576)" fill="#1c1c1c"/>
      <path id="Path_385" data-name="Path 385" d="M29.25,33.93a1.141,1.141,0,1,0-.812-.331A1.15,1.15,0,0,0,29.25,33.93Z" transform="translate(-2.454 -2.74)" fill="#1c1c1c"/>
      <path id="Path_386" data-name="Path 386" d="M32.361,35.781a1.141,1.141,0,1,0-1.141-1.141A1.141,1.141,0,0,0,32.361,35.781Z" transform="translate(-2.727 -2.904)" fill="#1c1c1c"/>
    </g>
  </g>
</svg>
