<svg xmlns="http://www.w3.org/2000/svg" width="246.525" height="20" viewBox="0 0 246.525 20">
  <g id="XMLID_1_" transform="translate(0.1 -0.1)">
    <g id="Group_1" data-name="Group 1" transform="translate(-0.1 0.1)">
      <path id="Path_1" data-name="Path 1" d="M497.687.384h2.79c-.426.709-.851,1.466-1.229,2.175V19.533a.525.525,0,0,1-.52.52h-.709c-3.972-4.775-7.943-9.5-11.915-14.279h-.047V17.5c.426.757.9,1.513,1.324,2.27H481.8l1.418-2.411c.047-.047.047-.095.095-.189V.62a.6.6,0,0,1,.52-.52h.709L496.457,14h.047V3.031c-.047-.095-.095-.142-.142-.236-.426-.8-.9-1.608-1.371-2.411Z" transform="translate(-253.951 -0.1)" fill="#fff"/>
      <path id="Path_2" data-name="Path 2" d="M447.214.1c5.2,0,9.362,4.444,9.362,9.976s-4.161,9.929-9.362,9.929-9.314-4.4-9.314-9.929C437.852,4.544,441.966.1,447.214.1Zm6.761,9.976a7.054,7.054,0,0,0-6.761-7.234c-3.688,0-6.714,3.31-6.714,7.234a6.752,6.752,0,1,0,13.475,0Z" transform="translate(-230.807 -0.1)" fill="#fff"/>
      <path id="Path_3" data-name="Path 3" d="M408.517,20.053c-3.972-4.775-7.943-9.5-11.915-14.279h-.047V17.5c.426.757.851,1.513,1.324,2.27H392.3c.473-.8.9-1.608,1.371-2.411.047-.047.047-.095.095-.189V.62a.559.559,0,0,1,.52-.52h.662L406.863,14h.047V3.031c-.047-.095-.095-.142-.142-.236L405.35.384h5.579c-.426.709-.8,1.466-1.229,2.175V19.533a.559.559,0,0,1-.52.52Z" transform="translate(-206.768 -0.1)" fill="#fff"/>
      <path id="Path_4" data-name="Path 4" d="M357.662.1c5.2,0,9.362,4.444,9.362,9.976s-4.161,9.929-9.362,9.929-9.362-4.4-9.362-9.929C348.347,4.544,352.461.1,357.662.1Zm6.761,9.976a7.054,7.054,0,0,0-6.761-7.234c-3.688,0-6.714,3.31-6.714,7.234a6.752,6.752,0,1,0,13.475,0Z" transform="translate(-183.572 -0.1)" fill="#fff"/>
      <path id="Path_5" data-name="Path 5" d="M301.554.1a.584.584,0,0,1,.378.189c.047.047.047.095.095.142,1.891,4.728,3.83,9.409,5.721,14.137,1.891-4.728,3.83-9.409,5.721-14.137A.514.514,0,0,1,313.941.1h.426a.583.583,0,0,1,.378.189c.047.095.095.142.142.236,1.04,5.721,2.08,11.489,3.121,17.21l1.135,1.986H314.6l.709-1.277L313.469,6.956h-.095l-4.4,11.3.993,1.749h-4.492l.993-1.749-4.4-11.3h-.095l-1.8,11.537.757,1.277H296.4l1.182-1.986c1.04-5.721,2.08-11.489,3.121-17.21a.548.548,0,0,1,.473-.426A.922.922,0,0,1,301.554.1Z" transform="translate(-156.211 -0.1)" fill="#fff"/>
      <path id="Path_6" data-name="Path 6" d="M286.4.7l-1.182,2.08V18l1.182,2.08h-5.2L282.382,18V2.78L281.2.7h5.2Z" transform="translate(-148.198 -0.416)" fill="#fff"/>
      <path id="Path_7" data-name="Path 7" d="M260.4.915l-1.418,2.411-1.418,2.411c-.426-.8-.851-1.608-1.324-2.364a5.615,5.615,0,0,0-2.27-.615c-2.317,0-3.121,1.466-3.121,2.506,0,1.56,1.229,2.553,3.5,3.5,3.168,1.277,5.863,2.837,5.863,6.194,0,2.884-2.553,5.248-6.1,5.248a8.891,8.891,0,0,1-5.059-1.513c-.851,0-1.7-.047-2.553-.047l1.418-2.411,1.418-2.411c.426.8.9,1.655,1.371,2.459.047.142.142.236.189.378a6.484,6.484,0,0,0,3.215,1.04c1.891,0,3.073-1.182,3.073-2.6,0-1.655-1.418-2.742-4.113-3.83-2.79-1.182-5.012-2.648-5.012-5.863,0-2.175,1.655-5.106,6-5.106a7.911,7.911,0,0,1,3.215.662h.331A18.423,18.423,0,0,1,260.4.915Z" transform="translate(-129.904 -0.205)" fill="#fff"/>
      <path id="Path_8" data-name="Path 8" d="M219.161,1.167v1.56a.525.525,0,0,1-.52.52h-4.492V17.621c.473.8.9,1.608,1.371,2.364h-5.579c.473-.8.9-1.56,1.324-2.364V3.2H206.82a.525.525,0,0,1-.52-.52V1.12a.525.525,0,0,1,.52-.52h11.82A.6.6,0,0,1,219.161,1.167Z" transform="translate(-108.711 -0.364)" fill="#fff"/>
      <path id="Path_9" data-name="Path 9" d="M189.813,1.167v1.56a.5.5,0,0,1-.52.52h-4.444V17.621c.426.8.9,1.608,1.371,2.364h-5.579c.473-.8.9-1.56,1.324-2.364V3.2H177.52a.5.5,0,0,1-.52-.52V1.12a.525.525,0,0,1,.52-.52h11.773A.6.6,0,0,1,189.813,1.167Z" transform="translate(-93.265 -0.364)" fill="#fff"/>
      <path id="Path_10" data-name="Path 10" d="M157.964,18.058v1.56a.525.525,0,0,1-.52.52H146.475a.525.525,0,0,1-.52-.52V11.675H144.3v-2.6h1.655V1.32a.525.525,0,0,1,.52-.52h10.969a.559.559,0,0,1,.52.52V2.88a.525.525,0,0,1-.52.52h-8.652V9.027h4.35l1.7-.993V12.62l-1.7-.993h-4.35v5.957h8.652A.46.46,0,0,1,157.964,18.058Z" transform="translate(-76.026 -0.469)" fill="#fff"/>
      <path id="Path_11" data-name="Path 11" d="M124.128,19.707c.189.189.095.378-.142.378h-5.012c.236-.331.473-.709.709-1.04l-7.234-8.227v7.234c.426.662.8,1.371,1.229,2.033H108.1c.52-.9.993-1.8,1.466-2.648V3.4c-.52-.9-.993-1.8-1.466-2.7h5.579c-.426.709-.8,1.371-1.229,2.08V9.069l7.139-7.423c-.189-.284-.426-.615-.615-.9h4.586c.236,0,.331.189.142.378-2.837,2.931-5.674,5.816-8.511,8.747C118.171,13.135,121.15,16.4,124.128,19.707Z" transform="translate(-56.942 -0.416)" fill="#fff"/>
      <path id="Path_12" data-name="Path 12" d="M86.11,2.511c-.378.615-.8,1.277-1.182,1.939s-.8,1.277-1.182,1.939c-.284-.567-.567-1.182-.851-1.749a7,7,0,0,0-4.492-1.8c-3.783,0-6.619,3.31-6.619,7.187a6.934,6.934,0,0,0,6.667,7.187,6.817,6.817,0,0,0,4.539-1.844h.047c.236-.52.52-.993.757-1.513.426.615.8,1.277,1.182,1.939.426.662.8,1.277,1.182,1.939-.615.047-1.182.047-1.8.095A8.81,8.81,0,0,1,78.4,20.053a9.693,9.693,0,0,1-9.5-9.929A9.777,9.777,0,0,1,78.4.1a8.79,8.79,0,0,1,6.1,2.317C85.023,2.417,85.59,2.464,86.11,2.511Z" transform="translate(-36.276 -0.1)" fill="#fff"/>
      <path id="Path_13" data-name="Path 13" d="M49.764,18.058v1.56a.525.525,0,0,1-.52.52H38.275a.5.5,0,0,1-.52-.52V11.675H36.1v-2.6h1.655V1.32a.5.5,0,0,1,.52-.52H49.244a.559.559,0,0,1,.52.52V2.88a.525.525,0,0,1-.52.52H40.592V9.027h4.3c.567-.331,1.135-.662,1.749-.993V12.62c-.567-.331-1.135-.662-1.749-.993h-4.3v5.957h8.652A.46.46,0,0,1,49.764,18.058Z" transform="translate(-18.984 -0.469)" fill="#fff"/>
      <path id="Path_14" data-name="Path 14" d="M11.106,10.151a4.99,4.99,0,0,1,3.4,4.492c0,3.121-2.506,5.343-6,5.343H2.075a.525.525,0,0,1-.52-.52V11.522H-.1v-2.6H1.555V1.12A.525.525,0,0,1,2.075.6H8.222C11.531.6,13.9,2.822,13.9,5.706A5.132,5.132,0,0,1,11.106,10.151ZM8.552,17.479a2.948,2.948,0,0,0,2.979-3.026,3.139,3.139,0,0,0-3.357-2.884H4.439v5.91Zm.426-8.511a2.83,2.83,0,0,0,1.986-2.837A2.643,2.643,0,0,0,8.174,3.3H4.439V9.016C5.952,8.969,7.465,8.969,8.978,8.969Z" transform="translate(0.1 -0.364)" fill="#fff"/>
    </g>
  </g>
</svg>
