<?xml version="1.0" encoding="UTF-8"?>
<svg width="256px" height="256px" viewBox="0 0 256 256" version="1.1" xmlns="http://www.w3.org/2000/svg" xmlns:xlink="http://www.w3.org/1999/xlink">
    <!-- Generator: Sketch 53.2 (72643) - https://sketchapp.com -->
    <title>Slice</title>
    <desc>Created with Sketch.</desc>
    <g id="Page-1" stroke="none" stroke-width="1" fill="none" fill-rule="evenodd">
        <g id="Group_1147" transform="translate(83.000000, 1.000000)" fill="#000000" fill-rule="nonzero">
            <path d="M7.84915459,117.366974 C9.56482855,126.079298 10.4652456,139.304511 10.7592812,156.349778 C10.9307938,166.292382 10.8937775,175.972611 10.7138149,189.112713 C10.5157282,203.576164 10.5257335,202.648203 10.5865729,204.425574 C11.7018546,227.802087 16.8832238,241.327873 24.6830033,247.458205 C28.5750138,250.517178 32.0097523,251.280029 36.864799,251.237645 C37.1458859,251.235116 37.1458859,251.235116 37.4113778,251.234222 C49.4643737,251.234222 58.0726375,243.222542 63.8525175,229.446885 C65.9676331,224.405758 67.5527752,218.914339 68.6802582,213.318348 C69.0923889,211.272836 69.4188741,209.329848 69.6702283,207.527925 C69.837617,206.32794 69.9457179,205.388824 70.0364487,204.494113 C70.9052658,199.244321 71.6356082,194.200929 72.3400236,188.741811 C72.6115243,186.637719 72.8684965,184.560211 73.1827655,181.951932 C73.1904504,181.888152 73.7673464,177.07236 73.9786186,175.491952 C77.2454537,162.862004 79.7738323,150.052489 81.5813026,136.958911 C83.5583263,128.036647 84.9083209,118.986925 85.6217226,109.87187 C86.5593892,98.1929671 86.2791512,86.4481903 84.7872963,74.8406567 C82.6238352,58.8155297 74.978621,36.0994359 65.4916705,21.2589808 C53.1839629,2.00600987 39.2458342,-3.5316769 23.6858069,8.33829962 C6.69112467,21.2900668 -0.946509084,58.8675856 3.13063163,93.4509457 C3.67112012,97.8017288 4.42356479,101.699694 5.94376923,108.558793 C6.10040652,109.264806 6.10040652,109.264806 6.25758581,109.971943 C7.05778815,113.572337 7.42898665,115.283671 7.84915459,117.366974 Z M2.12508847,110.890407 C1.96785649,110.183034 1.96785649,110.183034 1.81072915,109.474812 C0.263342864,102.493069 -0.508999619,98.4920258 -1.07199729,93.9597156 C-5.30885293,58.0219781 2.60593634,19.0808411 21.1190016,4.97190386 C39.0234348,-8.68650459 55.5774798,-2.1095015 69.0584795,18.9788526 C78.9002075,34.3742868 86.741207,57.6721143 88.9843305,74.2876344 C90.5153857,86.1998249 90.8026484,98.2390062 89.8418134,110.206424 C89.1133319,119.514208 87.7341516,128.759577 85.7447808,137.705155 C83.9453114,150.792015 81.3850719,163.762947 78.1289338,176.278322 C77.9701836,177.579607 77.3938778,182.390472 77.3857005,182.45834 C77.0701294,185.077425 76.8117966,187.165934 76.5385486,189.283566 C75.8280499,194.78983 75.0906182,199.882176 74.2317229,205.041649 C74.1542352,205.850153 74.0392792,206.848822 73.8629668,208.11278 C73.6002719,209.996002 73.2597784,212.022357 72.8301973,214.15448 C71.6511447,220.006424 69.990422,225.759678 67.7561713,231.084749 C61.3871932,246.264451 51.4987868,255.467556 37.4113778,255.467556 C37.1798899,255.468333 37.1798899,255.468333 36.9017542,255.470817 C31.1746319,255.520814 26.8758011,254.566049 22.0670486,250.786551 C13.1407607,243.770826 7.52632193,229.114528 6.35689109,204.59908 C6.29106836,202.682071 6.27932023,203.771676 6.48087857,189.05474 C6.66028998,175.954879 6.69716449,166.311735 6.52657754,156.422793 C6.23667423,139.617071 5.34979221,126.588289 3.69842031,118.199164 C3.28588695,116.153913 2.91875241,114.461383 2.12508847,110.890407 Z" id="Path_74"></path>
            <path d="M89.2398861,116.083133 L85.0097583,116.247845 C85.0011689,116.027252 84.9800323,115.587756 84.9427859,114.944 C84.8802681,113.863463 84.7945156,112.607875 84.6819715,111.191888 C84.3598055,107.138519 83.8878033,102.618754 83.2376367,97.7499987 C81.3807745,83.8449375 78.4722816,69.9432796 74.291576,56.9894906 C69.8970112,43.3730653 64.3356315,31.6098145 57.4997771,22.2536983 C51.4781755,14.0323376 46.1667008,9.53905955 39.989772,9.00047163 C26.9457343,7.85875703 16.8604445,24.7338636 12.8945739,45.0916598 C8.19794507,67.4229992 6.39397098,90.2658093 7.52341675,112.999817 L7.88466119,117.681884 L3.66387214,118.007538 L3.29896655,113.267746 C2.14782954,90.1133489 3.98050861,66.9070621 8.74560688,44.2513097 C13.0944611,21.9262149 24.1858449,3.36767188 40.3581952,4.7832006 C48.1313123,5.46096558 54.2205111,10.6121646 60.9164915,19.7542648 C68.0490033,29.5164082 73.7973989,41.6752291 78.3202882,55.6892641 C82.5869542,68.9093989 85.5456961,83.0512308 87.4337219,97.1896594 C88.094266,102.136126 88.574059,106.730495 88.9019964,110.856476 C89.0169885,112.303263 89.104808,113.589116 89.1690513,114.699477 C89.2078615,115.370259 89.2302763,115.836334 89.2398861,116.083133 Z" id="Path_75"></path>
            <path d="M60.3439389,55.2332506 C72.2926214,60.6114631 82.1682175,79.8090249 89.1443444,116.187359 L84.9867667,116.984641 C78.2471472,81.8396196 68.9384813,63.7441359 58.6063777,59.0935605 C52.2588722,56.2364895 45.4380913,59.2426545 42.2373956,63.5704524 L40.9296105,65.3387646 L39.2126974,63.9641959 C30.642661,57.1029844 24.5734045,57.136434 19.8335237,62.6495819 C15.6205951,67.5498104 12.5723776,76.5917678 10.640364,88.5002095 C9.60018108,94.9116336 8.93945725,101.790346 8.58630388,108.731318 C8.45690543,111.27455 8.37671096,113.684595 8.33644536,115.911397 C8.30922446,117.41679 8.3033096,118.639562 8.30937386,119.529802 C8.31083562,119.709749 8.31083562,119.709749 8.31126149,119.741637 L4.07829406,119.797296 C4.0777092,119.752315 4.0777092,119.752315 4.07613874,119.558639 C4.06984235,118.634321 4.07592642,117.376567 4.10380394,115.834861 C4.14487711,113.563398 4.22660067,111.1074 4.35843941,108.516206 C4.71892078,101.431208 5.39398692,94.4031793 6.46166827,87.8222621 C8.50936615,75.2007715 11.7665074,65.5390817 16.6234625,59.8897598 C22.6254813,52.9085679 30.6984602,52.490631 40.2217528,59.409377 C44.8235048,54.6038733 52.7116879,51.7979038 60.3439389,55.2332506 Z" id="Path_76"></path>
            <path d="M15.1387891,200.980897 C15.2078517,196.324837 15.3886933,192.567377 15.8788805,184.313219 C16.0202888,181.932075 16.0775845,180.953854 16.1495758,179.668365 C16.546679,172.908267 17.7147215,168.947656 21.6391793,166.194949 C25.8487986,163.742202 30.6855969,162.578582 35.4990965,162.846077 C41.9948422,163.049016 48.4614074,163.80611 54.7528395,165.09508 C59.536267,165.8944 62.2113174,169.971563 63.4348585,175.607999 C64.539244,180.546015 64.8848141,185.771658 64.6767485,191.982572 C64.5742243,195.042995 64.3954819,197.578688 63.9549636,202.857577 C63.820556,204.468232 63.7812715,204.942658 63.7236344,205.64332 C63.266754,215.787956 60.7897524,225.739384 56.4091991,234.972431 C51.9375986,243.701376 44.4851378,249.938102 36.2991628,249.095345 C27.8937079,248.238139 22.861614,240.868466 18.7629282,228.891137 C16.0621748,220.267887 14.8322241,211.251601 15.1245633,202.220168 C15.1278586,201.810606 15.1326076,201.397644 15.1387891,200.980897 Z M19.3575562,202.279739 L19.3564917,202.332193 C19.0764487,210.897143 20.2415125,219.448061 22.7854584,227.57308 C26.345136,237.973343 30.6397086,244.262891 36.7306789,244.884062 C42.7657407,245.505379 48.8768424,240.391194 52.6128957,233.100261 C56.7234581,224.434126 59.0630521,215.034737 59.4992498,205.378492 C59.5620297,204.597483 59.6014895,204.120941 59.7362937,202.505533 C60.1710681,197.295475 60.3463676,194.808623 60.4457886,191.840835 C60.6428054,185.959735 60.3198397,181.075911 59.300734,176.519015 C58.4027259,172.382342 56.6449854,169.703292 53.9795958,169.256487 C47.848678,168.001789 41.6218402,167.272762 35.3158248,167.075132 C31.278462,166.851287 27.2641551,167.817035 23.9230704,169.75473 C21.5829447,171.401818 20.6999174,174.395997 20.3759559,179.91083 C20.3039369,181.196954 20.2464652,182.178181 20.1047685,184.564181 C19.6182855,192.755966 19.4394814,196.471091 19.3716568,201.043683 C19.3654876,201.4596 19.3607805,201.871486 19.3575562,202.279739 Z" id="Path_77"></path>
            <path d="M10.2895526,138.534341 L6.05675855,138.46677 C6.13627746,133.485597 6.65143299,128.520931 7.59815359,123.620242 C9.30499938,114.992426 10.7173466,110.767898 14.1783851,106.752054 C17.9974478,102.580895 23.0405173,99.727805 28.5426213,98.6113579 C48.8639256,94.0729333 68.7382374,102.170106 73.3207887,120.37637 C73.8835907,122.53818 74.2017804,124.279019 74.8048848,128.118629 C74.9330039,128.934288 74.9851905,129.264409 75.0592942,129.724813 C76.8831601,141.967176 77.8939396,154.316925 78.0848481,166.68464 C78.1446432,169.774055 78.1446432,172.922745 78.0848481,176.01216 L73.8523075,175.93024 C73.9110457,172.895433 73.9110457,169.801367 73.8521633,166.758272 C73.6639967,154.569225 72.6684864,142.406035 70.876073,130.373753 C70.8046225,129.93076 70.751868,129.597046 70.6228277,128.775523 C70.0412595,125.073022 69.7400632,123.425154 69.2197582,121.426306 C65.2814277,105.779746 47.7852348,98.6514643 29.4250465,102.751496 C24.7599857,103.698443 20.5152071,106.099904 17.3431464,109.56298 C14.5686193,112.783451 13.3163837,116.529063 11.7528224,124.432491 C10.8547536,129.08144 10.3651303,133.800047 10.2895526,138.534341 Z" id="Path_79"></path>
            <path d="M27.1788296,116.138332 L25.5515704,112.230246 C33.1232788,109.077518 41.6402101,109.077518 49.2119185,112.230246 L47.5846593,116.138332 C41.0544514,113.419267 33.7090375,113.419267 27.1788296,116.138332 Z" id="Path_80"></path>
            <path d="M27.1788296,125.324665 L25.5515704,121.416579 C33.1232788,118.263851 41.6402101,118.263851 49.2119185,121.416579 L47.5846593,125.324665 C41.0544514,122.6056 33.7090375,122.6056 27.1788296,125.324665 Z" id="Path_81"></path>
            <path d="M27.1788296,132.95031 L25.5515704,129.042224 C33.1232788,125.889496 41.6402101,125.889496 49.2119185,129.042224 L47.5846593,132.95031 C41.0544514,130.231245 33.7090375,130.231245 27.1788296,132.95031 Z" id="Path_82"></path>
            <path d="M27.1788296,140.454599 L25.5515704,136.546512 C33.1232788,133.393785 41.6402101,133.393785 49.2119185,136.546512 L47.5846593,140.454599 C41.0544514,137.735534 33.7090375,137.735534 27.1788296,140.454599 Z" id="Path_83"></path>
        </g>
    </g>
</svg>