<?xml version="1.0" encoding="UTF-8"?>
<svg width="256px" height="256px" viewBox="0 0 256 256" version="1.1" xmlns="http://www.w3.org/2000/svg" xmlns:xlink="http://www.w3.org/1999/xlink">
    <!-- Generator: Sketch 53.2 (72643) - https://sketchapp.com -->
    <title>Slice</title>
    <desc>Created with Sketch.</desc>
    <g id="Page-1" stroke="none" stroke-width="1" fill="none" fill-rule="evenodd">
        <g id="Group_1151" transform="translate(85.000000, 1.000000)" fill="#000000" fill-rule="nonzero">
            <path d="M10.0513926,117.87655 C11.740891,126.434042 12.626646,139.447524 12.9145777,156.229415 C13.0822017,165.999259 13.0451109,175.517559 12.867419,188.418007 C12.6704932,202.714844 12.6813958,201.715206 12.7404178,203.461473 C13.8338043,226.454635 18.9317731,239.757648 26.6089793,245.786336 C30.438746,248.793741 33.8187778,249.543843 38.5958183,249.502324 C38.8717787,249.499853 38.8717787,249.499853 39.1323984,249.49898 C50.9863432,249.49898 59.4521991,241.617015 65.1363839,228.064608 C67.2163274,223.105543 68.7751348,217.703659 69.8842011,212.198156 C70.2895219,210.186108 70.6106699,208.274918 70.858134,206.501626 C71.0227021,205.322354 71.1283128,204.406224 71.2189947,203.516599 C72.0747321,198.357226 72.792704,193.400081 73.4855211,188.023503 C73.7517198,185.957679 74.0030465,183.922376 74.3132697,181.343675 C74.2807978,181.613595 74.8841246,176.572838 75.0464366,175.243318 C75.239671,173.74422 75.439371,172.224112 75.6465446,170.673611 C75.9974681,168.047277 79.836553,141.040099 80.1772233,137.322577 C80.7133339,132.033506 80.9179771,128.581015 81.2888486,120.179241 C81.4351133,116.865741 81.5237383,115.071997 81.6497354,113.070597 C81.7069794,112.161306 81.7680578,111.2891 81.8315685,110.482699 C82.4819552,98.9450349 82.4039225,87.3778337 81.5950045,75.7991112 C80.9183729,60.8608008 74.4142612,38.0298705 65.5271349,23.1270119 C54.3022015,4.30387523 40.9450089,-1.12213724 25.6332888,10.5590999 C8.91504497,23.3008575 1.39795623,60.317349 5.41017778,94.3420998 C5.9556213,98.7357 6.692894,102.526676 8.28617839,109.705212 C8.38443883,110.147739 8.38443883,110.147739 8.48286828,110.59069 C9.27779234,114.168139 9.63813047,115.828894 10.0513926,117.87655 Z M4.42767051,111.491772 C4.32921931,111.048723 4.32921931,111.048723 4.23076347,110.605316 C2.61026254,103.304156 1.85407412,99.4159175 1.28618955,94.8412354 C-2.88277698,59.4875905 4.90598652,21.1332876 23.1144348,7.2557756 C40.7545968,-6.20181883 56.7483649,0.295233985 69.0950022,20.9993605 C78.343908,36.5088885 85.0380582,60.006898 85.7419226,75.5602607 C86.5600938,87.262363 86.6393061,99.0044223 85.976066,110.761429 C85.9112245,111.591124 85.8516018,112.442542 85.7956316,113.3316 C85.671735,115.299635 85.5840844,117.073655 85.438911,120.362433 C85.0646585,128.840801 84.8566699,132.349733 84.3120767,137.721529 C83.9622667,141.539878 80.09869,168.71935 79.7640548,171.223782 C79.557712,172.768065 79.3588463,174.281822 79.1681982,175.760485 C79.0083197,177.070458 78.4057081,182.105238 78.4376355,181.839845 C78.1261357,184.429157 77.8734794,186.475228 77.6055601,188.554405 C76.9066971,193.977902 76.1816678,198.983773 75.3355044,204.055932 C75.2578692,204.860581 75.1456291,205.834218 74.9723698,207.07577 C74.7137913,208.928707 74.3789182,210.921576 73.9564979,213.018507 C72.7968613,218.775046 71.1639484,224.433735 68.9671825,229.671331 C62.7050515,244.601695 52.9831419,253.653083 39.1323984,253.653083 C38.9049933,253.653843 38.9049933,253.653843 38.6319213,253.656271 C32.999708,253.705222 28.7724736,252.767108 24.0433799,249.053487 C15.259694,242.155913 9.73625487,227.742646 8.5898516,203.630522 C8.52599621,201.747402 8.51335035,202.906874 8.7137093,188.360794 C8.8908576,175.499809 8.92780657,166.017908 8.76108529,156.300678 C8.47719789,139.754504 7.60472133,126.933954 5.97852316,118.694066 C5.57269688,116.683429 5.21623942,115.04062 4.42767051,111.491772 Z" id="Path_382"></path>
            <path d="M85.3949437,116.670751 L81.2414859,116.597502 C81.242239,116.555473 81.242239,116.555473 81.244827,116.316928 C81.2586848,114.792019 81.2382497,112.636692 81.1558498,109.944807 C81.0321194,105.902713 80.791156,101.511083 80.4054142,96.863978 C79.3456801,84.0971596 77.3775591,71.4285656 74.2857855,59.6156164 C70.5961847,45.5185083 65.5171566,33.5075312 58.8980924,24.2451019 C53.1310324,16.2667799 47.7774426,11.7476854 41.6792825,11.2172302 C28.8438056,10.0945819 18.9247884,26.6883908 15.01353,46.724259 C10.3944445,68.690541 8.62050681,91.159803 9.73183519,113.522546 L10.0863187,118.128062 L5.94446563,118.446858 L5.58642037,113.785107 C4.45383395,91.0102813 6.25592881,68.1843719 10.9423545,45.8989089 C15.2303534,23.9318982 26.1358559,5.68776953 42.0402547,7.0788397 C49.7042974,7.74550464 55.8426762,12.9270586 62.2713212,21.8206889 C69.227833,31.5552725 74.4968345,44.0155022 78.3045246,58.5638019 C81.4632321,70.6324899 83.4670796,83.5310517 84.5452802,96.5203405 C84.9372354,101.242299 85.18214,105.705758 85.3080087,109.817707 C85.3921474,112.566397 85.4131015,114.776458 85.3987592,116.354677 C85.3959798,116.611331 85.3959798,116.611331 85.3949437,116.670751 Z" id="Path_383"></path>
            <path d="M41.8775184,60.8440949 C46.2964711,55.9217127 52.70719,53.318598 59.4415817,56.8079922 C69.6780294,62.1119608 78.4303236,80.8981602 85.3026657,116.713515 L81.2229878,117.496334 C74.5750052,82.8502334 66.2703818,65.0249288 57.530461,60.4963788 C52.3743584,57.8247678 47.2185985,60.4498139 43.8835243,64.9502692 L42.5998227,66.682537 L40.9166703,65.3350804 C32.4794481,58.5806171 26.5029246,58.6123444 21.8371931,64.0380262 C17.6912844,68.859217 14.6925711,77.7554066 12.7927757,89.4720925 C11.7706579,95.775842 11.1215267,102.538911 10.7747348,109.363669 C10.6476191,111.865265 10.5688799,114.236244 10.5294031,116.427461 C10.5026912,117.910139 10.4969423,119.11549 10.5029913,119.994515 C10.5044703,120.174762 10.5044703,120.174762 10.5049019,120.206772 L6.35116438,120.261928 C6.35057372,120.216951 6.35057372,120.216951 6.3489859,120.0231 C6.34270678,119.110632 6.34861949,117.870948 6.37597337,116.352633 C6.41623981,114.117589 6.49647655,111.701516 6.62598372,109.152856 C6.97995575,102.186796 7.64314752,95.2772343 8.69222573,88.8072111 C10.7055185,76.3905479 13.9093004,66.8859878 18.6875113,61.3295059 C24.5860139,54.4702602 32.5181702,54.0554458 41.8775184,60.8440949 Z" id="Path_384"></path>
            <path d="M17.2280028,200.375412 C17.2898365,195.661767 17.4730872,191.84206 17.9711126,183.516809 C18.1076697,181.23405 18.1609246,180.3329 18.2297387,179.120459 C18.6181424,172.494749 19.7752442,168.579158 23.6275716,165.871332 C27.7675167,163.458805 32.5243588,162.314049 37.2586235,162.576755 C43.6486689,162.776231 50.0100098,163.521015 56.1982851,164.789063 C60.903237,165.573222 63.536469,169.584806 64.7353974,175.1252 C65.8232871,179.994464 66.1613972,185.147285 65.9532323,191.280039 C65.8516724,194.272097 65.6769478,196.75116 65.2470773,201.912981 C65.1146214,203.503492 65.0756174,203.975556 65.0186682,204.669978 C64.5691698,214.647761 62.132886,224.435502 57.821759,233.521969 C53.3956541,242.100721 46.0840002,248.217595 38.0408126,247.391805 C29.7768012,246.54827 24.8280528,239.299215 20.7969607,227.51866 C18.1402713,219.035917 16.9305388,210.166524 17.2184144,201.282272 C17.2222802,200.841865 17.2223888,200.833009 17.2280028,200.375412 Z M21.3721558,201.34159 L21.3711094,201.393146 C21.0954157,209.819337 22.2414867,218.231753 24.7442237,226.225322 C28.246412,236.458279 32.4717506,242.647664 38.4638629,243.2593 C44.3978121,243.868535 50.399792,238.847324 54.0992517,231.679499 C58.1426973,223.154678 60.4441514,213.908614 60.8733124,204.41051 C60.9352769,203.637632 60.9744557,203.163451 61.1073042,201.568225 C61.5316188,196.473118 61.7030072,194.041392 61.8015195,191.139117 C61.9986923,185.330203 61.6825986,180.512912 60.6782614,176.017406 C59.7978525,171.949091 58.0667698,169.311882 55.4403232,168.872719 C49.4087048,167.638166 43.2826787,166.920933 37.0790009,166.726672 C33.1064467,166.50674 29.1566698,167.457273 25.870585,169.363188 C23.5702293,170.985824 22.6940173,173.950894 22.3769458,179.359699 C22.3080292,180.574009 22.254621,181.477753 22.1178033,183.764868 C21.623609,192.026078 21.4424577,195.802024 21.3817491,200.429901 C21.3761555,200.885845 21.3761555,200.885845 21.3721558,201.34159 Z" id="Path_385"></path>
            <path d="M12.4544822,138.697721 L8.30090276,138.631725 C8.37875873,133.731707 8.8851928,128.847896 9.81622363,124.026891 C11.4952451,115.539962 12.8838943,111.385756 16.2870777,107.435717 C20.0440561,103.331961 25.0056492,100.52534 30.4182685,99.4279812 C50.4023814,94.9619606 69.954086,102.92909 74.4586011,120.836353 C75.0236038,123.010696 75.3418719,124.762356 75.9448381,128.631492 C76.0526376,129.323328 76.1008465,129.631185 76.1643438,130.031161 C77.9576278,142.071942 78.9513353,154.218291 79.1387997,166.382362 C79.1974733,169.422215 79.1974733,172.528567 79.1387968,175.557392 L74.9854724,175.476931 C75.0431108,172.501692 75.0431108,169.448893 74.9853294,166.454453 C74.800552,154.465739 73.8218194,142.502431 72.0586695,130.663299 C71.997374,130.277811 71.948374,129.964902 71.8402773,129.271146 C71.2584542,125.537683 70.9568628,123.877807 70.4340108,121.865425 C66.5615398,106.471014 49.3440403,99.4550505 31.2841268,103.490638 C26.6925963,104.42188 22.51466,106.78521 19.3929034,110.193697 C16.6632066,113.363202 15.4315896,117.047639 13.8931563,124.823828 C13.0098823,129.397649 12.5284886,134.039982 12.4544822,138.697721 Z" id="Path_387"></path>
            <path d="M29.0720528,116.601906 L27.4750897,112.767028 C34.9227976,109.66557 43.3004581,109.66557 50.748166,112.767028 L49.1512028,116.601906 C42.7255957,113.926082 35.4976599,113.926082 29.0720528,116.601906 Z" id="Path_388"></path>
            <path d="M29.0720528,125.638466 L27.4750897,121.803589 C34.9227976,118.70213 43.3004581,118.70213 50.748166,121.803589 L49.1512028,125.638466 C42.7255957,122.962642 35.4976599,122.962642 29.0720528,125.638466 Z" id="Path_389"></path>
            <path d="M29.0720528,133.140778 L27.4750897,129.3059 C34.9227976,126.204441 43.3004581,126.204441 50.748166,129.3059 L49.1512028,133.140778 C42.7255957,130.464954 35.4976599,130.464954 29.0720528,133.140778 Z" id="Path_390"></path>
            <path d="M29.0720528,140.521235 L27.4750897,136.686358 C34.9227976,133.584899 43.3004581,133.584899 50.748166,136.686358 L49.1512028,140.521235 C42.7255957,137.845411 35.4976599,137.845411 29.0720528,140.521235 Z" id="Path_391"></path>
            <path d="M81.8345902,110.448846 L85.976066,110.772506 C85.9112245,111.602202 85.8516018,112.45362 85.7956316,113.342678 C85.671735,115.310712 85.5840844,117.084733 85.438911,120.373511 C85.0646585,128.851879 84.8566699,132.36081 84.3120767,137.732606 C84.1254868,139.769327 80.606193,163.431982 79.1695359,175.760349 L75.0433542,175.279514 C76.4928981,162.840563 80.0017154,139.248348 80.1772233,137.333654 C80.7133339,132.044584 80.9179771,128.592092 81.2888486,120.190318 C81.4351133,116.876818 81.5237383,115.083074 81.6497354,113.081675 C81.7069794,112.172384 81.7680578,111.300178 81.8345902,110.448846 Z" id="Path_392"></path>
        </g>
    </g>
</svg>