<?xml version="1.0" encoding="UTF-8"?>
<svg width="256px" height="256px" viewBox="0 0 256 256" version="1.1" xmlns="http://www.w3.org/2000/svg" xmlns:xlink="http://www.w3.org/1999/xlink">
    <!-- Generator: Sketch 53.2 (72643) - https://sketchapp.com -->
    <title>Slice</title>
    <desc>Created with Sketch.</desc>
    <g id="Page-1" stroke="none" stroke-width="1" fill="none" fill-rule="evenodd">
        <g id="Group_1148" transform="translate(78.000000, 1.000000)" fill="#000000" fill-rule="nonzero">
            <path d="M14.0087796,156.286444 C14.1919658,166.136357 14.14282,175.802449 13.9321756,188.654414 C13.9346511,188.503375 13.8050318,196.107319 13.7811705,197.795492 C13.7421262,200.557854 13.7348013,202.295944 13.7586243,203.279048 C15.0599766,223.415827 20.0555477,236.20353 27.5560328,243.15778 C32.4056053,247.654174 37.3160528,249.104978 42.4097174,249.104978 C55.3640669,249.104978 64.5566398,241.231196 70.7069342,227.733489 C72.9509586,222.808654 74.6318402,217.443779 75.8255967,211.979251 C76.2622371,209.980491 76.6077867,208.081907 76.8728577,206.324256 C77.0501982,205.148334 77.1667565,204.207673 77.2598925,203.348915 C78.1777329,198.257615 78.9443378,193.375935 79.7052908,187.945955 C80.106731,185.081373 81.265229,176.334704 81.4119464,175.268211 L81.4152363,175.243136 L81.4732251,174.964667 C84.9376745,162.640857 87.6267825,150.112142 89.5592911,137.274854 C91.6529821,128.57059 93.0889608,119.721165 93.8570089,110.780234 C95.321347,95.5706907 94.304991,80.2242659 90.8539331,65.3669088 C87.0350571,49.8471165 78.3734083,30.9397095 68.4032155,18.9695863 C55.6654103,3.67669284 42.0878885,0.164070223 27.8400826,11.4626081 C9.52258944,25.9782674 1.59545062,61.4000697 5.94803685,94.7491151 C6.46857918,98.9876092 7.24453401,102.740152 8.8794966,109.527654 C9.02001354,110.110515 9.02001354,110.110515 9.16096913,110.694294 C10.0381543,114.32748 10.4371126,116.027898 10.886715,118.118938 C12.7321892,126.690128 13.699295,139.64547 14.0087796,156.286444 Z M83.806519,188.520697 C83.0385439,194.000786 82.2637646,198.93452 81.3578306,203.924715 C81.2804883,204.689162 81.1556904,205.696319 80.9678564,206.941822 C80.6897682,208.785789 80.3281318,210.772759 79.8714855,212.863098 C78.6192718,218.595219 76.8528457,224.233126 74.4754625,229.450636 C67.7191164,244.278412 57.2492043,253.246283 42.4097174,253.246283 C36.3636531,253.246283 30.4668342,251.504053 24.7403585,246.194617 C16.3729483,238.436577 10.9903138,224.658066 9.6223199,203.466018 C9.59297521,202.32917 9.60045366,200.554637 9.64027979,197.736963 C9.66424122,196.041707 9.79400191,188.429466 9.79142734,188.586547 C10.0013437,175.779003 10.050279,166.154302 9.86819127,156.36345 C9.56338509,139.974034 8.61192767,127.228458 6.83813095,118.990356 C6.39801736,116.943433 6.0045275,115.266318 5.13533374,111.666231 C4.99432354,111.082226 4.99432354,111.082226 4.85334877,110.497466 C3.18340569,103.564744 2.38277473,99.6928661 1.83958843,95.2695059 C-2.67960253,60.6444308 5.55781601,23.8361678 25.2674522,8.2173078 C41.5262584,-4.67595741 57.5510763,-0.530198078 71.5852954,16.3191582 C81.9973113,28.8197302 90.9166582,48.2896631 94.8815591,64.4036317 C98.440385,79.7241466 99.4865771,95.52108 97.9811869,111.15587 C97.1973018,120.282473 95.7280119,129.337182 93.6202895,138.066107 C91.7037908,150.84972 88.9913865,163.501226 85.4989083,175.946864 C85.2902169,177.485969 84.1965554,185.73749 83.806519,188.520697 Z" id="Path_84"></path>
            <path d="M97.3878592,116.880329 L93.2501842,117.053671 C93.2411905,116.838989 93.2189566,116.410178 93.1796868,115.781565 C93.1137313,114.725779 93.0231487,113.498764 92.9041503,112.114856 C92.5634488,108.152625 92.0636279,103.734201 91.374517,98.9744614 C89.4063938,85.3804898 86.3201446,71.7899284 81.8809574,59.1264552 C77.2143497,45.8142298 71.3062184,34.3136856 64.0350389,25.1578989 C57.6704389,17.1122958 51.9666371,12.6546093 45.2890435,12.0749075 C31.2304602,10.9448161 20.5137559,27.444989 16.240541,47.4151493 C11.296962,69.1978698 9.37631114,91.5575617 10.5292467,113.810932 L10.5447336,114.010236 C10.6254869,115.049812 10.6622731,115.510526 10.7117449,116.083466 C10.7831373,116.910272 10.853952,117.629639 10.9331185,118.313687 L6.81927285,118.789792 C6.73502469,118.061835 6.66040112,117.303776 6.58579317,116.43973 C6.53495831,115.851004 6.49754095,115.382385 6.41586742,114.330962 C6.4081349,114.231418 6.4081349,114.231418 6.39695069,114.078656 C5.22087867,91.3923028 7.17421884,68.6520506 12.1964203,46.5236153 C16.8627916,24.7152763 28.6402209,6.58193849 45.6340295,7.94801864 C53.7883397,8.65586695 60.2660648,13.7183969 67.2805146,22.5854927 C74.8662846,32.1374019 80.9803884,44.0388843 85.7890908,57.756457 C90.3257238,70.6979093 93.4693638,84.5411966 95.473089,98.3810737 C96.1741251,103.223181 96.6828998,107.720758 97.030229,111.760066 C97.1520413,113.176697 97.2449981,114.435874 97.3129338,115.523358 C97.3539987,116.180706 97.377698,116.63778 97.3878592,116.880329 Z" id="Path_85"></path>
            <path d="M66.8067786,57.1196973 C79.4274706,62.2272542 89.9214299,80.9422445 97.3569553,116.532498 L93.3031751,117.379415 C86.1226637,83.0097894 76.2544258,65.4107144 65.2532051,60.9585527 C58.3839829,58.1785987 51.0628201,61.2348462 47.5485224,65.5829283 L46.3057931,67.1205011 L44.7123859,65.9502192 C35.474516,59.165442 28.7930292,59.199214 23.6548062,64.6782512 C19.1607582,69.4703856 15.9134337,78.2958652 13.8510646,89.9301954 C12.7387633,96.2049605 12.031785,102.938409 11.6534236,109.73178 C11.5149195,112.218582 11.4289676,114.574098 11.3856477,116.74907 C11.3564377,118.215627 11.3499355,119.403905 11.356161,120.264797 C11.3576027,120.431929 11.3576027,120.431929 11.3580153,120.460944 L7.21711509,120.518795 C7.21652662,120.476151 7.21652662,120.476151 7.21496494,120.294744 C7.20847653,119.397497 7.21518294,118.171899 7.24516457,116.666602 C7.28943343,114.443982 7.37717424,112.039443 7.51852757,109.501484 C7.9054353,102.554664 8.62911085,95.6621875 9.77333237,89.2073529 C11.9647531,76.8450102 15.4498046,67.3734436 20.6340179,61.8453658 C27.0046512,55.0521736 35.4959548,54.688431 45.6361804,61.5353912 C50.4819403,56.7400464 58.7662482,53.8657183 66.8067786,57.1196973 Z" id="Path_86"></path>
            <path d="M18.5399369,181.177808 C18.5974859,179.709047 18.6248581,179.003712 18.6562871,178.171757 C18.8682955,171.644604 20.0590584,167.608792 24.1462873,164.853322 C28.5689067,162.423846 33.5677324,161.239588 38.5771803,161.425744 C45.4529408,161.570965 52.3084166,162.226722 59.0443085,163.380747 C64.0629378,164.132657 66.9623266,168.009728 68.4325374,173.527344 C69.8571234,178.859811 70.3163183,184.443933 70.1412376,191.44216 C70.0815999,193.825964 69.983404,195.764343 69.7346639,199.950235 C69.6401295,201.541096 69.6033224,202.171409 69.5594477,202.951381 C69.307081,212.93674 66.9355468,222.754465 62.5737318,231.81046 C58.1232407,240.37446 50.4034992,246.58496 41.8204734,245.894476 C33.01348,245.123249 27.2920686,237.80296 22.7967188,226.411212 C19.6580194,218.072721 18.0800637,209.228041 18.1415559,200.318742 C18.0560522,194.998763 18.1635025,190.785133 18.5399369,181.177808 Z M22.2827075,200.275883 L22.282924,200.324355 C22.2220641,208.733519 23.7100769,217.082015 26.6607226,224.921649 C30.6035536,234.912627 35.5053952,241.184313 42.167139,241.767732 C48.7337041,242.295958 55.1329194,237.147815 58.8707449,229.957274 C62.9497121,221.486451 65.1819246,212.245493 65.4219376,202.785197 C65.4687303,201.93558 65.505752,201.301592 65.6006521,199.704578 C65.8466043,195.5656 65.9431637,193.659527 66.0012287,191.338586 C66.1672533,184.702341 65.738494,179.488335 64.4312029,174.594922 C63.3388953,170.495556 61.4154567,167.923528 58.3879756,167.469483 C51.811505,166.343218 45.1604588,165.707016 38.4566713,165.565163 C34.162827,165.405826 29.9061807,166.414256 26.3038202,168.383007 C23.8446567,170.047343 22.9670518,173.021779 22.7950267,178.317075 C22.7631173,179.162516 22.7356912,179.869243 22.678066,181.339948 C22.3040665,190.885128 22.1981424,195.046615 22.2827075,200.275883 Z" id="Path_87"></path>
            <path d="M13.5307159,138.852112 L9.39002327,138.780932 C9.62361143,125.19267 12.2920531,114.932701 19.0571749,107.686003 C27.5131447,98.6221383 42.010965,96.9202335 57.762102,100.563805 C65.7574137,102.432657 71.9672048,105.63764 75.8593275,110.788584 C78.969679,114.909135 80.6637883,119.805487 81.903567,126.771991 C82.1717861,128.279155 82.2717545,128.918086 82.7843787,132.30061 C82.832004,132.614579 82.832004,132.614579 82.8805269,132.932701 C84.9923912,147.025738 85.9234245,161.270548 85.6639175,175.518577 L81.5232999,175.443162 C81.7786075,161.425701 80.8626405,147.411407 78.7858587,133.552424 C78.737751,133.237071 78.737751,133.237071 78.6898285,132.921143 C78.183656,129.58119 78.0856235,128.954632 77.8263241,127.497589 C76.6908268,121.117058 75.1877151,116.772731 72.5545926,113.284406 C69.3546949,109.049572 63.9606395,106.265605 56.824142,104.59749 C42.3685972,101.253621 29.2894553,102.788987 22.0848402,110.511537 C16.1828474,116.833664 13.7483093,126.194291 13.5307159,138.852112 Z" id="Path_89"></path>
            <path d="M31.5227031,116.963157 L30.0446882,113.094582 C38.0473652,110.037106 46.8963087,110.037106 54.8989857,113.094582 L53.4209708,116.963157 C46.370087,114.26932 38.5735869,114.26932 31.5227031,116.963157 Z" id="Path_90"></path>
            <path d="M31.5227031,125.949788 L30.0446882,122.081212 C38.0473652,119.023737 46.8963087,119.023737 54.8989857,122.081212 L53.4209708,125.949788 C46.370087,123.255951 38.5735869,123.255951 31.5227031,125.949788 Z" id="Path_91"></path>
            <path d="M31.5227031,133.409657 L30.0446882,129.541082 C38.0473652,126.483606 46.8963087,126.483606 54.8989857,129.541082 L53.4209708,133.409657 C46.370087,130.71582 38.5735869,130.71582 31.5227031,133.409657 Z" id="Path_92"></path>
            <path d="M31.5227031,140.750809 L30.0446882,136.882234 C38.0473652,133.824758 46.8963087,133.824758 54.8989857,136.882234 L53.4209708,140.750809 C46.370087,138.056972 38.5735869,138.056972 31.5227031,140.750809 Z" id="Path_93"></path>
        </g>
    </g>
</svg>