<?xml version="1.0" encoding="UTF-8"?>
<svg width="256px" height="256px" viewBox="0 0 256 256" version="1.1" xmlns="http://www.w3.org/2000/svg" xmlns:xlink="http://www.w3.org/1999/xlink">
    <!-- Generator: Sketch 53.2 (72643) - https://sketchapp.com -->
    <title>Slice</title>
    <desc>Created with Sketch.</desc>
    <g id="Page-1" stroke="none" stroke-width="1" fill="none" fill-rule="evenodd">
        <g id="Group_1150" transform="translate(72.000000, 1.000000)" fill="#000000" fill-rule="nonzero">
            <path d="M15.8433246,155.812669 C16.0420773,165.485962 15.9981316,174.911968 15.7876081,187.672394 C15.5536277,201.854607 15.5711599,200.550029 15.6287472,202.30165 C16.8875784,221.17109 22.251635,233.627828 30.4197352,240.873036 C35.8441346,245.684547 41.9558451,247.685505 46.7605806,247.685505 C60.8479566,247.685505 70.8079563,239.84759 77.4619946,226.453473 C79.8816041,221.582967 81.6961553,216.2788 82.9889612,210.872511 C83.4612063,208.897665 83.8356646,207.022155 84.1246316,205.281694 C84.3163671,204.126863 84.4386318,203.237312 84.5491542,202.336668 C85.545112,197.24964 86.3843724,192.361432 87.18929,187.103778 C87.5028841,185.055408 87.801394,183.020017 88.1556226,180.536564 C88.2606908,179.799944 88.8432695,175.681067 89.0054436,174.551119 L89.0660119,174.270608 C90.186007,170.415846 91.4396163,166.49636 92.8552493,162.370655 C94.2081089,158.427895 101.090961,139.900911 101.889599,136.957462 C104.162393,128.382749 105.716509,119.633514 106.538907,110.769761 C108.120548,96.1315823 107.133691,81.3296448 103.63141,67.0647719 C99.5047719,51.4135189 88.8545056,32.0011677 76.6636866,19.8094332 C61.681032,4.82565341 45.9866483,1.39774932 30.8279699,12.5310895 C12.9445742,25.6858202 2.75846102,64.2319339 7.12538027,94.9059776 C7.70178513,99.0649384 8.51661416,102.622244 10.3345127,109.514389 C10.4277932,109.867927 10.4277932,109.867927 10.5212239,110.221824 C11.5354249,114.063517 11.9864075,115.827835 12.4940751,118.024045 C14.4679966,126.504969 15.5045139,139.322756 15.8433246,155.812669 Z M92.2113479,181.115054 C91.8553047,183.611229 91.5548797,185.659679 91.2388821,187.723749 C90.4258631,193.034319 89.5771818,197.977399 88.5941817,202.965729 C88.5009375,203.771418 88.3696677,204.726485 88.1660819,205.952692 C87.8619411,207.784546 87.4688074,209.753593 86.9733977,211.82531 C85.613349,217.512796 83.7009703,223.102925 81.1309624,228.276172 C73.8462879,242.939716 62.6096362,251.78228 46.7605806,251.78228 C41.0121778,251.78228 33.9312715,249.464008 27.7012003,243.937857 C18.6673157,235.924687 12.8674027,222.455777 11.5376658,202.506619 C11.472924,200.575057 11.4532334,202.040242 11.6913913,187.604814 C11.9011459,174.890991 11.9448912,165.507995 11.7474149,155.896825 C11.4140884,139.673831 10.3955357,127.07893 8.50361723,118.951303 L8.50290162,118.948218 C8.00772341,116.805953 7.56389004,115.069574 6.56015855,111.267539 C6.46670316,110.913548 6.46670316,110.913548 6.37321811,110.559235 C4.51503043,103.514343 3.67308372,99.8386498 3.06844805,95.4758919 C-1.48861613,63.466339 9.08983323,23.4355535 28.4016713,9.23008483 C45.4176796,-3.26737798 63.2841294,0.634940059 79.5606521,16.9126851 C92.2849838,29.6379723 103.287985,49.6932579 107.601405,66.0540869 C111.226028,80.8159728 112.244855,96.0974443 110.615073,111.178994 C109.774747,120.238566 108.180747,129.212333 105.84653,138.018646 C104.987334,141.185432 98.0273459,159.920047 96.7302576,163.700267 C95.3516376,167.718103 94.1306567,171.532021 93.0402531,175.275609 C92.8551999,176.569215 92.312926,180.402903 92.2113479,181.115054 Z" id="Path_372"></path>
            <path d="M109.925219,116.822494 L105.832759,117.010452 C105.823062,116.799315 105.799045,116.376365 105.756619,115.755779 C105.685313,114.712739 105.587419,113.500327 105.458858,112.13273 C105.090703,108.216422 104.550912,103.848889 103.806995,99.1437936 C101.682264,85.7053952 98.3523478,72.2703861 93.5644257,59.7519887 C88.5304384,46.5902349 82.1581544,35.2190504 74.3120293,26.1605362 C68.9688735,19.9571641 57.9626376,13.8009146 49.8573627,13.1532955 C34.4763892,12.0194417 22.8812705,28.3676246 18.2951173,48.1559568 C12.9312133,69.6111064 10.8547495,91.7560997 12.1339429,113.794341 L12.1492634,113.991502 C12.2291483,115.0199 12.265539,115.47566 12.3144788,116.042439 C12.3851035,116.860355 12.4551568,117.571987 12.533472,118.248679 L8.46386132,118.719665 C8.38051904,117.999536 8.30669788,117.249628 8.23289217,116.394873 C8.18260392,115.812477 8.1455889,115.348897 8.06479357,114.30878 C8.0571442,114.210306 8.0571442,114.210306 8.0467774,114.071874 C6.74083482,91.5797232 8.85622059,69.0196358 14.3123894,47.1966926 C19.2991578,25.6783168 32.0284142,7.73109123 50.1710954,9.06857122 C59.4287921,9.80822567 71.403284,16.5060613 77.4123954,23.482616 C85.5969788,32.9318748 92.1979143,44.7110822 97.3908746,58.2884835 C102.290788,71.0996899 105.687338,84.8035418 107.853503,98.5040046 C108.611399,103.297511 109.161703,107.750107 109.537649,111.749301 C109.669523,113.152129 109.770213,114.399176 109.843854,115.476359 C109.888396,116.127908 109.914143,116.581317 109.925219,116.822494 Z" id="Path_373"></path>
            <path d="M50.2186319,65.6607014 C55.4190441,61.035618 65.4195749,58.1819126 74.6798486,61.4637866 C89.3560577,66.6650873 101.380189,85.3473162 109.309226,120.549484 L105.312581,121.449699 C97.6607753,87.4783418 86.3847721,69.9585006 73.3113395,65.3252295 C64.9245998,62.3529391 55.6708532,65.4793728 52.0264232,69.6378453 L50.8311902,71.0016645 L49.332537,69.9805751 C39.3960827,63.2104909 32.1066527,63.2446789 26.5594298,68.7350747 C21.7687945,73.4766335 18.316244,82.1904349 16.1236757,93.6870439 C14.9426034,99.8799303 14.1920899,106.526321 13.7908296,113.233146 C13.6438114,115.690467 13.5526784,118.018875 13.5068945,120.16983 C13.4759668,121.622834 13.4692207,122.802133 13.4760517,123.659348 C13.4776825,123.830924 13.4776825,123.830924 13.4781447,123.860405 L9.38185526,123.923423 C9.38118234,123.879115 9.38118234,123.879115 9.37940756,123.691993 C9.37226776,122.796025 9.37924148,121.576944 9.41104808,120.082648 C9.45791255,117.880924 9.55108983,115.500288 9.70136793,112.988479 C10.1123851,106.118573 10.8819783,99.3032168 12.0994327,92.919563 C14.4341644,80.6775279 18.1532501,71.2910255 23.6775256,65.823342 C30.440434,59.1297145 39.4065462,58.8100929 50.2186319,65.6607014 Z" id="Path_374"></path>
            <path d="M15.3352469,138.568622 L11.2391617,138.493486 C11.4748826,125.643016 13.6244885,116.070157 19.2382595,108.961241 C25.9530343,100.515371 37.6137256,98.4490316 55.3461532,99.300461 C65.1879023,99.8199933 74.7712239,102.637082 83.424545,107.584494 C90.3639383,112.071079 94.2425149,119.624096 95.8890593,129.565394 C97.31403,137.430706 97.6741467,145.452 96.9549998,153.459931 C96.4041935,158.341911 95.682468,162.242901 93.9009939,170.734033 C93.4163796,173.043875 93.2245457,173.964939 92.9748052,175.192987 L88.9602056,174.376562 C89.2122207,173.13733 89.4051187,172.211157 89.8915135,169.892828 C91.6466428,161.527264 92.3524781,157.712162 92.8793379,153.047199 C93.5609203,145.451889 93.2173612,137.799401 91.8526352,130.265314 C90.3717228,121.325327 87.0117419,114.782206 81.2962409,111.083244 C73.2943846,106.511581 64.3331142,103.877349 55.1399338,103.39203 C38.7243568,102.603851 28.0180053,104.501077 22.4492396,111.505474 C17.5337462,117.730152 15.5559293,126.537981 15.3352469,138.568622 Z" id="Path_376"></path>
            <path d="M37.7240845,116.936636 L36.3783671,113.067192 C44.998512,110.069274 54.3783052,110.069274 62.9984501,113.067192 L61.6527327,116.936636 C53.9041312,114.241824 45.472686,114.241824 37.7240845,116.936636 Z" id="Path_377"></path>
            <path d="M37.7240845,125.826636 L36.3783671,121.957192 C44.998512,118.959274 54.3783052,118.959274 62.9984501,121.957192 L61.6527327,125.826636 C53.9041312,123.131824 45.472686,123.131824 37.7240845,125.826636 Z" id="Path_378"></path>
            <path d="M37.7240845,133.203561 L36.3783671,129.334116 C44.998512,126.336198 54.3783052,126.336198 62.9984501,129.334116 L61.6527327,133.203561 C53.9041312,130.508749 45.472686,130.508749 37.7240845,133.203561 Z" id="Path_379"></path>
            <path d="M37.7240845,140.468507 L36.3783671,136.599063 C44.998512,133.601145 54.3783052,133.601145 62.9984501,136.599063 L61.6527327,140.468507 C53.9041312,137.773695 45.472686,137.773695 37.7240845,140.468507 Z" id="Path_380"></path>
            <path d="M20.628534,183.054276 C20.7044235,180.463158 20.7332862,179.431344 20.7660046,178.053338 C20.9525429,171.469901 22.1654153,167.534789 26.5494093,164.828414 C31.3483084,162.457983 36.6642618,161.326588 41.9632268,161.536047 C50.5299911,161.667288 59.0803285,162.330605 67.6933438,163.544405 C72.7765577,164.591803 76.7178561,168.615453 77.6211994,173.549964 C82.9226308,192.906588 79.7233567,213.605185 68.826807,230.455489 C62.6302111,240.067679 55.0422819,245.834207 46.2000267,245.100869 C36.8282943,244.358279 30.6761977,237.165375 25.7030107,225.829655 C22.3052099,217.614857 20.5355407,208.818336 20.4922242,199.928864 C20.3341548,195.197778 20.3856029,191.348749 20.628534,183.054276 Z M24.5876855,199.821082 L24.5888186,199.88072 C24.6259426,208.249214 26.290137,216.530627 29.4716449,224.223711 C33.8669354,234.241173 39.1634015,240.433691 46.5311279,241.017503 C53.4925719,241.594844 59.9206533,236.709755 65.3850898,228.233298 C75.6499455,212.359835 78.6633162,192.863992 73.631211,174.462871 C72.991796,170.998769 70.3167104,168.267789 66.9950783,167.579126 C58.6785945,166.411164 50.2975841,165.760983 41.8511726,165.630991 C37.1862468,165.447118 32.5495038,166.433957 28.5357905,168.406001 C25.8779457,170.053512 25.0114356,172.864867 24.8613806,178.159944 C24.8286639,179.538797 24.7996705,180.575282 24.7235522,183.174212 C24.4826041,191.400978 24.432228,195.190176 24.5876855,199.821082 Z" id="Path_381"></path>
        </g>
    </g>
</svg>