<?xml version="1.0" encoding="UTF-8"?>
<svg width="256px" height="256px" viewBox="0 0 256 256" version="1.1" xmlns="http://www.w3.org/2000/svg" xmlns:xlink="http://www.w3.org/1999/xlink">
    <!-- Generator: Sketch 53.2 (72643) - https://sketchapp.com -->
    <title>Slice</title>
    <desc>Created with Sketch.</desc>
    <g id="Page-1" stroke="none" stroke-width="1" fill="none" fill-rule="evenodd">
        <g id="Group_1149" transform="translate(74.000000, 1.000000)" fill="#000000" fill-rule="nonzero">
            <path d="M14.6211121,156.291529 C14.8220285,166.07628 14.7771986,175.614908 14.5636167,188.51306 C14.3252402,202.908543 14.3440668,201.517833 14.4016249,203.285798 C15.674139,222.360341 21.0965006,234.952478 29.3533844,242.276438 C34.8367447,247.140248 41.0148869,249.162957 45.8718478,249.162957 C60.1123474,249.162957 70.180608,241.239846 76.9069728,227.700141 C79.3528824,222.776695 81.1871569,217.414874 82.4940151,211.949821 C82.9713933,209.953509 83.3499218,208.057614 83.6420298,206.298234 C83.8358493,205.13085 83.959443,204.23163 84.0711667,203.321196 C85.0779502,198.178875 85.9263329,193.237534 86.7399997,187.922732 C87.0570024,185.852098 87.3587569,183.794582 87.7168359,181.284135 C87.8230461,180.539508 88.4119572,176.375861 88.5758941,175.233631 L88.6464732,174.918804 C92.4264369,162.635042 95.3677689,150.108741 97.4919206,137.231347 C99.7894187,128.563432 101.360428,119.719096 102.191765,110.758998 C103.790597,95.9617082 102.793014,80.99888 99.2525343,66.5784587 C94.925621,50.151125 85.2021492,30.8642781 73.9948985,18.7543608 C60.0079398,3.64084929 45.066783,0.218053241 29.7688174,11.4525144 C11.6910369,24.7502313 1.39420516,63.7153244 5.80859093,94.7227817 C6.39126106,98.9269486 7.21494692,102.522921 9.05260527,109.48998 C9.14689969,109.847361 9.14689969,109.847361 9.24134591,110.205104 C10.2665709,114.088555 10.7224554,115.87205 11.2356411,118.092133 C13.231063,126.665433 14.27885,139.623148 14.6211121,156.291529 Z M91.8166451,181.868914 C91.4567319,184.39222 91.1530414,186.462936 90.833609,188.549441 C90.0117529,193.917736 89.1538468,198.914545 88.1601619,203.957096 C88.0659042,204.771542 87.9332076,205.736991 87.7274089,206.976525 C87.4199622,208.828291 87.0225553,210.818741 86.5217607,212.912976 C85.1469289,218.662283 83.2137635,224.313174 80.6158207,229.542653 C73.251965,244.365582 61.8931757,253.304261 45.8718478,253.304261 C40.0609624,253.304261 32.9030896,250.960791 26.6053003,245.374573 C17.4732214,237.274303 11.6102658,223.658992 10.266054,203.49236 C10.2012941,201.542366 10.1802524,203.0967 10.42288,188.444493 C10.6356809,175.593507 10.6803061,166.098434 10.4806805,156.376547 C10.1439589,139.977995 9.11433376,127.245622 7.20180873,119.02947 L7.20108533,119.026351 C6.70052475,116.8608 6.25186711,115.105548 5.23722549,111.262186 C5.14275428,110.904348 5.14275428,110.904348 5.04825309,110.546184 C3.16986772,103.424717 2.31876941,99.7090699 1.70756162,95.2988907 C-2.89903587,62.9414079 7.79439663,22.4755051 27.3162296,8.11556787 C44.52615,-4.52298818 61.7460405,-0.578168222 77.0343298,15.941487 C88.7407063,28.5907312 98.7681311,48.4804796 103.265812,65.5572835 C106.929832,80.4796246 107.959734,95.9271992 106.312237,111.172678 C105.462777,120.330725 103.851451,129.402032 101.536748,138.09737 C99.432741,150.911357 96.464487,163.568309 92.6523308,175.981583 C92.46318,177.304172 91.9189225,181.151859 91.8166451,181.868914 Z" id="Path_94"></path>
            <path d="M105.612128,116.877618 L101.475176,117.067426 C101.465384,116.854009 101.441128,116.426491 101.398273,115.799204 C101.326245,114.744898 101.22735,113.51939 101.097463,112.137021 C100.725512,108.178411 100.180088,103.763701 99.428343,99.0077837 C97.2812558,85.4242305 93.9159299,71.8441039 89.0767644,59.1904933 C83.9882804,45.8849566 77.5466019,34.3897969 69.6145949,25.2328681 C62.685481,17.1882082 56.3796937,12.673319 49.0047772,12.0842241 C33.4568232,10.9359844 21.7357912,27.4609682 17.0997382,47.4646085 C11.6775308,69.1529663 9.57849683,91.538666 10.8715945,113.816454 L10.8870815,114.015758 C10.9678347,115.055334 11.004621,115.516048 11.0540927,116.088987 C11.1254851,116.915793 11.1962998,117.635161 11.2754663,118.319208 L7.16162068,118.795313 C7.07737251,118.067357 7.00274895,117.309298 6.928141,116.445252 C6.87730614,115.856526 6.83988878,115.387907 6.75821524,114.336484 C6.75048272,114.23694 6.75048272,114.23694 6.74000324,114.097003 C5.41986563,91.3603724 7.55824473,68.5550666 13.0737198,46.4949176 C18.1147836,24.7422514 30.9824573,6.60066641 49.322147,7.95511713 C58.0844194,8.65498722 65.1725923,13.7300577 72.7486065,22.5257776 C81.0227885,32.0777096 87.6956493,43.9854136 92.9448533,57.7112063 C97.8972231,70.6608271 101.3299,84.5127343 103.518863,98.3612148 C104.284735,103.206509 104.840783,107.70721 105.220607,111.74961 C105.353841,113.167594 105.455561,114.428115 105.529947,115.516937 C105.57494,116.175525 105.600943,116.633834 105.612128,116.877618 Z" id="Path_95"></path>
            <path d="M72.0994933,60.9390111 C85.6442686,66.2079274 96.9710211,85.0460515 104.989435,120.645021 L100.949348,121.555022 C93.2030177,87.1640076 82.5511409,69.4483049 70.5981208,64.7985813 C63.0327107,61.8556375 54.9975666,64.8441495 51.1976887,69.1799957 L49.989464,70.5586391 L48.4745211,69.5264509 C38.4300618,62.6827788 31.0613989,62.7173385 25.4538801,68.2674125 C20.6111727,73.06051 17.1210945,81.8690265 14.9046939,93.4905987 C13.7107839,99.7507991 12.9521126,106.469433 12.5464908,113.249159 C12.3978746,115.73319 12.3057509,118.086906 12.2594695,120.261241 C12.2282056,121.730038 12.2213861,122.922156 12.2282914,123.788689 C12.2299399,123.962129 12.2299399,123.962129 12.2304072,123.991931 L8.08959281,124.055634 C8.08891258,124.010844 8.08891258,124.010844 8.08711851,123.821689 C8.07990111,122.915982 8.08695062,121.68365 8.11910295,120.173112 C8.16647681,117.947456 8.2606669,115.540943 8.41257845,113.001832 C8.82806319,106.057253 9.60602155,99.167817 10.8367091,92.7147757 C13.1968184,80.3396749 16.9563289,70.8511454 22.5406509,65.3240305 C29.3734757,58.5612029 38.4311113,58.2348918 49.3530138,65.1487077 C54.5085683,60.3796663 63.464596,57.5800369 72.0994933,60.9390111 Z" id="Path_96"></path>
            <path d="M19.2616456,193.484872 C19.2826634,191.112046 19.3181631,189.216093 19.411861,184.960055 C19.4798703,181.87087 19.5076391,180.501287 19.5339829,178.762874 C19.7225488,172.107878 20.9486046,168.129994 25.380604,165.394027 C30.2319286,162.998848 35.6056512,161.856172 40.9675903,162.068908 C48.4675668,162.205478 55.9479966,162.881522 63.434728,164.107279 C68.5731942,165.166062 72.5573328,169.233447 73.4575912,174.176492 C75.0520089,179.519819 75.5987557,185.110639 75.4723142,192.134426 C75.430081,194.480466 75.3444436,196.381288 75.1204983,200.508238 C75.0310416,202.15678 74.9955004,202.827256 74.9545587,203.640448 C74.7863221,213.70706 72.2726555,223.595711 67.5860164,232.571202 C62.8080384,241.135941 54.5114034,247.283896 45.2913965,246.547465 C35.8177975,245.796804 29.5988303,238.525716 24.5700325,227.063013 C21.1517677,218.752453 19.3640187,209.862002 19.3041599,200.876217 C19.2497636,198.570576 19.2379168,196.163771 19.2616456,193.484872 Z M23.4447234,200.795932 L23.4452619,200.831716 C23.4994506,209.292163 25.1816345,217.663096 28.3811845,225.443382 C32.8242499,235.569729 38.1782863,241.829557 45.6198209,242.419204 C52.9426085,243.004098 59.8997071,237.848763 63.9421499,230.604137 C68.3034797,222.250053 70.6563573,212.993939 70.8160268,203.504467 C70.85964,202.614758 70.8954207,201.939764 70.9852777,200.283844 C71.2065343,196.206443 71.290642,194.339575 71.3316808,192.059886 C71.4511039,185.425969 70.9433564,180.233941 69.4371372,175.144424 C68.790772,171.642669 66.0866094,168.882004 62.6827592,168.178849 C55.4758718,167.000619 48.1935466,166.342479 40.8479842,166.208249 C36.1325714,166.021579 31.4454402,167.018258 27.388223,169.010675 C24.7014886,170.676094 23.8255599,173.518006 23.6742221,178.852679 C23.6482816,180.576422 23.6203831,181.952404 23.5521621,185.051205 C23.4588638,189.289092 23.4235909,191.172935 23.4027875,193.521553 C23.3793708,196.165209 23.3911222,198.533622 23.4447234,200.795932 Z" id="Path_97"></path>
            <path d="M14.1076952,138.862781 L9.96708741,138.786828 C10.2053705,125.796679 12.3783417,116.119768 18.0531319,108.933581 C25.0270177,100.1618 39.019393,97.5051638 54.5936512,99.1703028 C62.2442156,99.7233826 69.6785122,101.957697 76.4427738,105.758988 C83.4022357,110.069761 86.7235301,116.920959 88.7719728,127.80673 C89.1101506,129.603863 89.1703654,129.97275 89.8788233,134.446422 L89.908485,134.633673 C91.9889305,148.155995 92.9204804,161.830215 92.6931489,175.509754 L88.5524163,175.440942 C88.7758628,161.99518 87.8602327,148.554646 85.8168523,135.273085 C85.8026672,135.183665 85.8026672,135.183665 85.7884908,135.094174 C85.0884799,130.673841 85.0294083,130.311958 84.7020993,128.572583 C82.8485079,118.722285 79.991283,112.828374 74.3384254,109.324693 C68.1817433,105.866824 61.3379389,103.809977 54.2243761,103.2945 C39.8653732,101.760419 27.1233075,104.179667 21.299014,111.505468 C16.3300913,117.797806 14.3307763,126.701372 14.1076952,138.862781 Z" id="Path_99"></path>
            <path d="M33.8023245,116.992904 L32.4419798,113.0814 C41.1558219,110.050896 50.6375694,110.050896 59.3514115,113.0814 L57.9910668,116.992904 C50.1582414,114.268801 41.6351499,114.268801 33.8023245,116.992904 Z" id="Path_100"></path>
            <path d="M33.8023245,125.979535 L32.4419798,122.068031 C41.1558219,119.037527 50.6375694,119.037527 59.3514115,122.068031 L57.9910668,125.979535 C50.1582414,123.255431 41.6351499,123.255431 33.8023245,125.979535 Z" id="Path_101"></path>
            <path d="M33.8023245,133.436643 L32.4419798,129.525139 C41.1558219,126.494635 50.6375694,126.494635 59.3514115,129.525139 L57.9910668,133.436643 C50.1582414,130.71254 41.6351499,130.71254 33.8023245,133.436643 Z" id="Path_102"></path>
            <path d="M33.8023245,140.777796 L32.4419798,136.866291 C41.1558219,133.835787 50.6375694,133.835787 59.3514115,136.866291 L57.9910668,140.777796 C50.1582414,138.053692 41.6351499,138.053692 33.8023245,140.777796 Z" id="Path_103"></path>
        </g>
    </g>
</svg>